<svg width="312" height="240" fill="none" version="1.1" viewBox="0 0 312 240" xml:space="preserve" xmlns="http://www.w3.org/2000/svg" xmlns:xlink="http://www.w3.org/1999/xlink"><defs>



 <linearGradient id="ROTa" x1="42.99" x2="22.01" y1="7.01" y2="51.99" gradientUnits="userSpaceOnUse">
  <stop stop-color="#ffafaf" offset="0"/>
  <stop stop-color="#e31313" offset="1"/>
 </linearGradient>
 <linearGradient id="ROTc" x1="54.51" x2="9.55" y1="41.18" y2="16.25" gradientTransform="matrix(1.0909 0 0 1.0909 72.387 63.259)" xlink:href="#ROTa">
  <stop stop-color="#9a1212" offset="0"/>
  <stop stop-color="#d33e3e" offset="1"/>
 </linearGradient>

 <clipPath id="g">
  <circle cx="61.63" cy="61.88" r="51.38"/>
 </clipPath>
 <linearGradient id="h" x1="61.63" x2="61.63" y1="-551.25" y2="-652.25" gradientTransform="matrix(1,0,0,-1,0,-538)" gradientUnits="userSpaceOnUse">
  <stop stop-color="#fff" offset="0"/>
  <stop stop-color="#e1f1ff" offset=".148"/>
  <stop stop-color="#d4ebff" offset=".236"/>
  <stop stop-color="#e3f2ff" offset=".35"/>
  <stop stop-color="#f3f9ff" offset=".526"/>
  <stop stop-color="#fcfeff" offset=".726"/>
  <stop stop-color="#fff" offset="1"/>
 </linearGradient>


 <linearGradient id="b" gradientUnits="userSpaceOnUse">
  <stop stop-color="#524ac9" offset="0"/>
  <stop stop-color="#5855bc" offset=".096"/>
  <stop stop-color="#5d60af" offset=".235"/>
  <stop stop-color="#5f64ab" offset=".368"/>
  <stop stop-color="#190c7f" offset=".725"/>
 </linearGradient>
 <linearGradient id="k" x1="-160.04" x2="-160.04" y1="-726.62" y2="-729.13" gradientTransform="matrix(.46954 -.096246 -.096246 -.46954 107.19 -259.65)" xlink:href="#b"/>
 <linearGradient id="l" x1="-915.77" x2="-915.77" y1="-785.94" y2="-789.16" gradientTransform="matrix(.31403 -.3621 -.3621 -.31403 115.29 -489.31)" xlink:href="#b"/>
 <linearGradient id="m" x1="62.41" x2="62.41" y1="-595" y2="-603.19" gradientTransform="matrix(.4793 0 0 -.4793 76.629 -190.61)" gradientUnits="userSpaceOnUse">
  <stop stop-color="#8ba4d6" offset="0"/>
  <stop stop-color="#1b3ea6" offset="1"/>
 </linearGradient>
 <radialGradient id="n" cx="61.37" cy="-595.29" r="7.57" gradientTransform="matrix(.4793 0 0 -.4793 76.629 -190.61)" gradientUnits="userSpaceOnUse">
  <stop stop-color="#fff" offset="0"/>
  <stop stop-color="#f6faff" offset=".051"/>
  <stop stop-color="#def" offset=".136"/>
  <stop stop-color="#b5d9ff" offset=".243"/>
  <stop stop-color="#7dbdff" offset=".369"/>
  <stop stop-color="#3699ff" offset=".508"/>
  <stop stop-color="#1487ff" offset=".571"/>
  <stop stop-color="#0f85ff" offset=".813"/>
  <stop stop-color="#3397ff" offset=".967"/>
 </radialGradient>

</defs><path d="m0 0h312v240h-312z" fill="#00a0d2"/><g transform="matrix(2.313 0 0 2.313 -89.657 -104.54)"><circle cx="106.21" cy="97.077" r="28.145" fill="url(#ROTa)" stroke="url(#ROTc)" stroke-width="2.1818" style="fill:#262626;stroke:#0c0c0c"/><circle transform="matrix(.4793 0 0 .4793 76.629 67.254)" cx="61.63" cy="63.88" r="51.38" clip-path="url(#g)" fill="url(#h)" style="fill:#fff"/><g transform="translate(76.537 67.409)" fill="#d33e3e" style="fill:#181818">
  <path d="m34.065 9.0334c-0.2972 0-0.5416-0.2444-0.54161-0.54161s0.2444-0.5416 0.54161-0.54161 0.5416 0.2444 0.54161 0.54161-0.2444 0.5416-0.54161 0.54161z" style="fill:#181818"/>
  <path d="m31.745 8.7506c-0.2972 0-0.5416-0.2396-0.54161-0.53682s0.2396-0.5416 0.54161-0.54161c0.2972 0 0.5368 0.2396 0.53682 0.54161 0 0.2972-0.2396 0.5368-0.53682 0.53682z" style="fill:#181818"/>
  <path d="m36.26 9.6517c-0.2972 0-0.5416-0.2444-0.54161-0.54161s0.2444-0.5416 0.54161-0.54161 0.5416 0.2444 0.54161 0.54161-0.2444 0.5416-0.54161 0.54161z" style="fill:#181818"/>
  <path d="m38.259 10.428c-0.2972 0-0.5416-0.2444-0.54161-0.54161s0.2444-0.5416 0.54161-0.54161 0.5416 0.2444 0.54161 0.54161-0.2444 0.5416-0.54161 0.54161z" style="fill:#181818"/>
  <path d="m42.232 12.628c-0.2972 0-0.5416-0.2444-0.54161-0.54161s0.2444-0.5368 0.54161-0.53682 0.5416 0.2444 0.54161 0.53682c0 0.2972-0.2444 0.5416-0.54161 0.54161z" style="fill:#181818"/>
  <path d="m45.625 15.724c-0.2972 0-0.5416-0.2444-0.54161-0.54161s0.2444-0.5416 0.54161-0.54161 0.5416 0.2444 0.54161 0.54161-0.2444 0.5416-0.54161 0.54161z" style="fill:#181818"/>
  <path d="m47.044 17.479c-0.2972 0-0.5416-0.2444-0.54161-0.54161s0.2444-0.5416 0.54161-0.54161 0.5416 0.2444 0.54161 0.54161-0.2444 0.5416-0.54161 0.54161z" style="fill:#181818"/>
  <path d="m49.383 21.495c-0.2972 0-0.5368-0.2396-0.53682-0.53682s0.2396-0.5416 0.53682-0.54161 0.5416 0.2396 0.54161 0.54161c0 0.2972-0.2444 0.5368-0.54161 0.53682z" style="fill:#181818"/>
  <path d="m50.198 23.532c-0.2972 0-0.5416-0.2396-0.54161-0.54161 0-0.2972 0.2396-0.5368 0.54161-0.53682 0.2972 0 0.5368 0.2396 0.53682 0.53682s-0.2396 0.5416-0.53682 0.54161z" style="fill:#181818"/>
  <path d="m50.677 25.588c-0.2972 0-0.5416-0.2396-0.54161-0.54161 0-0.2972 0.2396-0.5416 0.54161-0.54161 0.2972 0 0.5368 0.2396 0.53682 0.54161 0 0.2972-0.2396 0.5416-0.53682 0.54161z" style="fill:#181818"/>
  <path d="m51.137 27.923c-0.2972 0-0.5416-0.2396-0.54161-0.54161s0.2444-0.5416 0.54161-0.54161 0.5368 0.2396 0.53682 0.54161-0.2396 0.5416-0.53682 0.54161z" style="fill:#181818"/>
  <path d="m51.099 32.476c-0.2972 0-0.5416-0.2444-0.54161-0.54161s0.2444-0.5368 0.54161-0.53682 0.5368 0.2396 0.53682 0.53682-0.2396 0.5416-0.53682 0.54161z" style="fill:#181818"/>
  <path d="m50.696 34.695c-0.2972 0-0.5368-0.2444-0.53682-0.54161s0.2396-0.5368 0.53682-0.53682 0.5416 0.2396 0.54161 0.53682-0.2396 0.5416-0.54161 0.54161z" style="fill:#181818"/>
  <path d="m50.14 36.972c-0.2972 0-0.5368-0.2396-0.53682-0.54161 0-0.2972 0.2396-0.5416 0.53682-0.54161s0.5416 0.2444 0.54161 0.54161-0.2444 0.5416-0.54161 0.54161z" style="fill:#181818"/>
  <path d="m49.182 39.009c-0.2972 0-0.5368-0.2396-0.53682-0.53682s0.2396-0.5416 0.53682-0.54161 0.5416 0.2396 0.54161 0.54161c0 0.2972-0.2396 0.5368-0.54161 0.53682z" style="fill:#181818"/>
  <path d="m47.044 43.001c-0.2972 0-0.5416-0.2444-0.54161-0.54161s0.2444-0.5416 0.54161-0.54161 0.5416 0.2444 0.54161 0.54161-0.2444 0.5416-0.54161 0.54161z" style="fill:#181818"/>
  <path d="m45.587 44.76c-0.2972 0-0.5416-0.2444-0.54161-0.54161s0.2444-0.5416 0.54161-0.54161 0.5416 0.2444 0.54161 0.54161-0.2444 0.5416-0.54161 0.54161z" style="fill:#181818"/>
  <path d="m44.01 46.337c-0.2972 0-0.5416-0.2444-0.54161-0.54161s0.2444-0.5416 0.54161-0.54161 0.5416 0.2444 0.54161 0.54161-0.2444 0.5416-0.54161 0.54161z" style="fill:#181818"/>
  <path d="m42.27 47.794c-0.2972 0-0.5368-0.2396-0.53682-0.53682s0.2396-0.5416 0.53682-0.54161 0.5416 0.2444 0.54161 0.54161-0.2444 0.5368-0.54161 0.53682z" style="fill:#181818"/>
  <path d="m38.22 50.033c-0.2972 0-0.5416-0.2444-0.54161-0.54161s0.2444-0.5368 0.54161-0.53682 0.5368 0.2444 0.53682 0.53682c0 0.2972-0.2444 0.5416-0.53682 0.54161z" style="fill:#181818"/>
  <path d="m36.222 50.929c-0.2972 0-0.5416-0.2444-0.54161-0.54161s0.2444-0.5368 0.54161-0.53682 0.5368 0.2396 0.53682 0.53682-0.2396 0.5416-0.53682 0.54161z" style="fill:#181818"/>
  <path d="m33.921 51.427c-0.2972 0-0.5368-0.2396-0.53682-0.53682s0.2396-0.5416 0.53682-0.54161 0.5368 0.2444 0.53682 0.54161-0.2396 0.5368-0.53682 0.53682z" style="fill:#181818"/>
  <path d="m31.769 51.868c-0.2972 0-0.5416-0.2396-0.54161-0.54161 0-0.2972 0.2444-0.5368 0.54161-0.53682s0.5368 0.2396 0.53682 0.53682-0.2396 0.5416-0.53682 0.54161z" style="fill:#181818"/>
  <path d="m24.795 9.0334c-0.2972 0-0.5416-0.2444-0.54161-0.54161s0.2444-0.5416 0.54161-0.54161 0.5416 0.2444 0.54161 0.54161-0.2396 0.5416-0.54161 0.54161z" style="fill:#181818"/>
  <path d="m27.115 8.7506c-0.2972 0-0.5416-0.2396-0.54161-0.53682s0.2444-0.5368 0.54161-0.53682 0.5368 0.2396 0.53682 0.53682-0.2396 0.5368-0.53682 0.53682z" style="fill:#181818"/>
  <path d="m22.6 9.6517c-0.2972 0-0.5416-0.2444-0.54161-0.54161s0.2396-0.5416 0.54161-0.54161c0.2972 0 0.5416 0.2444 0.54161 0.54161s-0.2444 0.5416-0.54161 0.54161z" style="fill:#181818"/>
  <path d="m20.601 10.428c-0.2972 0-0.5368-0.2444-0.53682-0.54161s0.2396-0.5368 0.53682-0.53682 0.5416 0.2396 0.54161 0.53682-0.2444 0.5416-0.54161 0.54161z" style="fill:#181818"/>
  <path d="m16.628 12.628c-0.2972 0-0.5416-0.2396-0.54161-0.54161s0.2396-0.5416 0.54161-0.54161 0.5416 0.2396 0.54161 0.54161-0.2396 0.5416-0.54161 0.54161z" style="fill:#181818"/>
  <path d="m13.234 15.724c-0.2972 0-0.5416-0.2444-0.54161-0.54161s0.2444-0.5416 0.54161-0.54161 0.5416 0.2396 0.54161 0.54161-0.2396 0.5416-0.54161 0.54161z" style="fill:#181818"/>
  <path d="m14.941 14.076c-0.2972 0-0.5416-0.2444-0.54161-0.54161s0.2396-0.5416 0.54161-0.54161 0.5368 0.2396 0.53682 0.54161-0.2396 0.5416-0.53682 0.54161z" style="fill:#181818"/>
  <path d="m11.816 17.479c-0.2972 0-0.5368-0.2396-0.53682-0.54161s0.2396-0.5416 0.53682-0.54161 0.5416 0.2396 0.54161 0.54161-0.2396 0.5416-0.54161 0.54161z" style="fill:#181818"/>
  <path d="m9.4766 21.495c-0.2972 0-0.5416-0.2396-0.54161-0.54161 0-0.2972 0.2444-0.5416 0.54161-0.54161s0.5416 0.2444 0.54161 0.54161-0.2444 0.5416-0.54161 0.54161z" style="fill:#181818"/>
  <path d="m8.6618 23.532c-0.2972 0-0.5416-0.2444-0.54161-0.54161s0.2444-0.5416 0.54161-0.54161 0.5416 0.2444 0.54161 0.54161-0.2444 0.5416-0.54161 0.54161z" style="fill:#181818"/>
  <path d="m8.1825 25.588c-0.2972 0-0.5416-0.2444-0.54161-0.54161s0.2444-0.5368 0.54161-0.53682 0.5368 0.2396 0.53682 0.53682-0.2396 0.5416-0.53682 0.54161z" style="fill:#181818"/>
  <path d="m7.7224 27.923c-0.2972 0-0.5368-0.2444-0.53682-0.54161s0.2396-0.5368 0.53682-0.53682 0.5368 0.2396 0.53682 0.53682-0.2396 0.5416-0.53682 0.54161z" style="fill:#181818"/>
  <path d="m7.7607 32.476c-0.2972 0-0.5368-0.2444-0.53682-0.53682 0-0.2972 0.2396-0.5416 0.53682-0.54161s0.5416 0.2396 0.54161 0.54161c0 0.2972-0.2396 0.5368-0.54161 0.53682z" style="fill:#181818"/>
  <path d="m8.1586 34.695c-0.2972 0-0.5416-0.2444-0.54161-0.54161s0.2444-0.5416 0.54161-0.54161 0.5416 0.2444 0.54161 0.54161-0.2444 0.5416-0.54161 0.54161z" style="fill:#181818"/>
  <path d="m8.7193 36.972c-0.2972 0-0.5416-0.2444-0.54161-0.54161s0.2444-0.5368 0.54161-0.53682 0.5416 0.2444 0.54161 0.53682c0 0.2972-0.2444 0.5416-0.54161 0.54161z" style="fill:#181818"/>
  <path d="m9.6779 39.009c-0.2972 0-0.5416-0.2396-0.54161-0.54161 0-0.2972 0.2444-0.5416 0.54161-0.54161s0.5416 0.2444 0.54161 0.54161-0.2444 0.5416-0.54161 0.54161z" style="fill:#181818"/>
  <path d="m11.816 43.001c-0.2972 0-0.5368-0.2444-0.53682-0.54161s0.2444-0.5416 0.53682-0.54161c0.2972 0 0.5416 0.2444 0.54161 0.54161s-0.2444 0.5416-0.54161 0.54161z" style="fill:#181818"/>
  <path d="m13.273 44.76c-0.2972 0-0.5416-0.2444-0.54161-0.54161s0.2444-0.5416 0.54161-0.54161 0.5416 0.2444 0.54161 0.54161-0.2444 0.5416-0.54161 0.54161z" style="fill:#181818"/>
  <path d="m14.85 46.337c-0.2972 0-0.5416-0.2444-0.54161-0.54161s0.2444-0.5416 0.54161-0.54161 0.5416 0.2444 0.54161 0.54161-0.2444 0.5416-0.54161 0.54161z" style="fill:#181818"/>
  <path d="m16.589 47.794c-0.2972 0-0.5416-0.2396-0.54161-0.53682s0.2444-0.5416 0.54161-0.54161 0.5368 0.2444 0.53682 0.54161-0.2396 0.5368-0.53682 0.53682z" style="fill:#181818"/>
  <path d="m20.644 50.033c-0.2972 0-0.5368-0.2444-0.53682-0.54161s0.2396-0.5368 0.53682-0.53682 0.5368 0.2444 0.53682 0.53682c0 0.2972-0.2396 0.5416-0.53682 0.54161z" style="fill:#181818"/>
  <path d="m22.638 50.929c-0.2972 0-0.5416-0.2444-0.54161-0.54161s0.2396-0.5368 0.54161-0.53682c0.2972 0 0.5416 0.2396 0.54161 0.53682s-0.2396 0.5416-0.54161 0.54161z" style="fill:#181818"/>
  <path d="m24.934 51.427c-0.2972 0-0.5416-0.2396-0.54161-0.53682s0.2396-0.5416 0.54161-0.54161 0.5416 0.2444 0.54161 0.54161-0.2396 0.5368-0.54161 0.53682z" style="fill:#181818"/>
  <path d="m27.091 51.868c-0.2972 0-0.5416-0.2396-0.54161-0.54161 0-0.2972 0.2396-0.5368 0.54161-0.53682s0.5416 0.2396 0.54161 0.53682-0.2444 0.5416-0.54161 0.54161z" style="fill:#181818"/>
  <path transform="matrix(.4793 0 0 .4793 .092 -.155)" d="m60.87 111.25v-8.63h2.01v8.63z" style="fill:#181818"/>
  <path transform="matrix(.4793 0 0 .4793 .092 -.155)" d="m60.87 21.46v-8.96h2v8.96z" style="fill:#181818"/>
  <path transform="matrix(.4793 0 0 .4793 .092 -.155)" d="m102.4 63.1v-2h8.62v2z" style="fill:#181818"/>
  <path transform="matrix(.4793 0 0 .4793 .092 -.155)" d="m12.73 63.1v-2h8.62v2z" style="fill:#181818"/>
  <path d="m12.726 20.163 0.41699-0.72854-3.7146-2.1233-0.41699 0.72854 0.15817 0.09107 3.5612 2.037zm4.8218-10.957 0.09107 0.15338 2.0514 3.5516 0.72854-0.42178-2.1425-3.705-0.72374 0.42178zm0 40.664 0.15338 0.09107 0.57037 0.33072 2.1233-3.7194-0.72854-0.41699-2.1233 3.7146zm-8.5267-8.8527 0.091067 0.15817 0.33072 0.57037 3.7098-2.1425-0.42178-0.72854-3.705 2.1473zm37.663-20.854 3.7194-2.1233-0.41699-0.72854-3.7146 2.1281 0.09107 0.15817 0.32592 0.57037zm-6.9642-7.2518 2.1425-3.7098-0.72854-0.41699-2.1425 3.705 0.15338 0.09107 0.57037 0.33072zm-0.70936 33.656 0.09107 0.15817 2.037 3.5612 0.72854-0.41699-2.1233-3.7194-0.72854 0.41699zm7.2518-6.9642 0.15338 0.09107 3.5516 2.0514 0.42178-0.72854-3.7098-2.1425z" style="fill:#181818"/>
 </g><path d="m106.79 93.434c0.2349 0.4745 0.0431 1.05-0.43137 1.2845l-1.0017 0.49847c-0.4745 0.2349-1.05 0.04314-1.2845-0.43137l-2.569-5.1477c-0.2349-0.4745-0.0431-1.05 0.43137-1.2845l1.0017-0.49847c0.4745-0.2349 1.05-0.04314 1.2845 0.43137z" fill="#5ff6ff" stroke="#5ff6ff" stroke-width=".479" style="fill:#181818;stroke:#0e0e0e"/><path d="m105.57 94.287 11.441 23.174" fill="none" stroke="#5ff6ff" stroke-linecap="round" stroke-linejoin="round" stroke-width=".959" style="fill:#181818;stroke:#0e0e0e"/><path d="m109.72 96.007c0.0863 0.42178-0.18692 0.83398-0.60871 0.92026l-13.689 2.8183c-0.42178 0.08627-0.83398-0.18693-0.92026-0.60871-0.08627-0.42178 0.18693-0.83398 0.60392-0.92026l13.689-2.8183c0.42179-0.08627 0.83399 0.18693 0.92026 0.60871z" fill="url(#k)" style="fill:#181818;stroke-width:.4793;stroke:#0e0e0e"/><path d="m121.38 80.013c0.20131 0.17255 0.22048 0.47451 0.0479 0.67581l-16.037 18.75c-0.17255 0.20131-0.47451 0.22048-0.67582 0.04793l-0.36426-0.31634c-0.20131-0.17255-0.22048-0.47451-0.0479-0.67581l16.037-18.75c0.17255-0.20131 0.47451-0.22048 0.67582-0.04793z" fill="url(#l)" style="fill:#181818;stroke-width:.4793;stroke:#0e0e0e"/><circle cx="106.54" cy="96.625" r="2.1425" fill="url(#m)" style="fill:#181818;stroke-width:.4793;stroke:#0e0e0e"/><circle cx="106.52" cy="96.63" r="1.7974" fill="url(#n)" style="fill:#262626;stroke-width:.4793;stroke:#3c3c3c"/></g></svg>
