<svg width="312" height="240" fill="none" version="1.1" viewBox="0 0 312 240" xmlns="http://www.w3.org/2000/svg">
 <path d="m0 0h312v240h-312z" fill="#00a0d2"/>
 <path d="m193.64 84.422q0 9.1875-3.0938 16.406-3 7.125-8.0625 12.562t-11.531 10.031q-6.375 4.5937-13.5 8.9062v21.375h-16.781v-28.594q5.25-3.1875 12.188-7.5938 7.0312-4.5 10.969-8.3438 5.0625-4.7812 7.875-10.406 2.8125-5.7188 2.8125-12.938 0-10.594-6.6562-15.75-6.6562-5.25-17.344-5.25-9.375 0-17.719 3.1875-8.25 3.0938-13.406 6.4688h-1.0312v-19.125q6.2812-2.5312 15.844-4.5 9.5625-2.0625 18.094-2.0625 19.219 0 30.281 9.8438 11.062 9.75 11.062 25.781zm-34.688 106.78h-19.125v-19.781h19.125z" style="fill:#000;stroke-width:2.224;stroke:#1e1e1e" aria-label="?"/>
 <path d="m91.29 142.06h-7.362l-13.521-16.958h-6.474v16.958h-5.6719v-42.654h11q3.6667 0 6.1302 0.40104 2.4922 0.40104 4.7266 1.862 2.2344 1.4323 3.5234 3.6953 1.3177 2.263 1.3177 5.6146 0 4.6979-2.3776 7.849-2.3776 3.151-6.474 4.6693zm-12.26-30.651q0-1.862-0.65886-3.2943-0.65885-1.4609-2.0339-2.3776-1.2031-0.80208-2.8073-1.1172-1.6042-0.34375-3.9818-0.34375h-5.6146v16.099h4.9844q2.4349 0 4.3828-0.42969t3.3229-1.776q1.2318-1.2031 1.8047-2.8646 0.60156-1.6615 0.60156-3.8958zm30.044 31.396q-7.6484 0-11.888-4.2969-4.2109-4.3255-4.2109-12.26 0-7.8203 4.0964-12.432 4.0964-4.6406 10.714-4.6406 2.9792 0 5.2708 0.85938 2.2917 0.85937 4.0104 2.6927 1.7188 1.8333 2.6354 4.4974 0.91667 2.6354 0.91667 6.474v2.9219h-22.172q0 5.5859 2.8073 8.5365 2.8073 2.9505 7.763 2.9505 1.776 0 3.4662-0.40104 1.7188-0.40104 3.0938-1.0312 1.4609-0.65886 2.4635-1.2604 1.0026-0.63021 1.6615-1.1745h0.31511v5.8724q-0.94532 0.3724-2.349 0.94531-1.4036 0.54427-2.5208 0.85938-1.5755 0.42969-2.8646 0.65885-1.2604 0.22917-3.2083 0.22917zm6.3021-20.31q-0.0573-2.1771-0.51562-3.7526-0.45834-1.5755-1.3177-2.6641-0.94532-1.2031-2.4349-1.8333-1.4609-0.63021-3.638-0.63021-2.1484 0-3.6667 0.65885-1.4896 0.63021-2.7214 1.862-1.2031 1.2604-1.8333 2.8073-0.63021 1.5182-0.80208 3.5521zm29.529-19.852h-0.28646q-0.71614-0.25781-2.0625-0.48698-1.3464-0.25781-2.4062-0.25781-3.4088 0-4.8698 1.5469-1.4323 1.5182-1.4323 5.5286v1.0885h8.9089v4.4688h-8.737v27.529h-5.3854v-27.529h-3.638v-4.4688h3.638v-1.0599q0-5.7865 2.7786-8.7943 2.7786-3.0078 7.9635-3.0078 1.4896 0 2.9219 0.17188 1.4323 0.14323 2.6068 0.34375zm17.154 40.161q-7.6484 0-11.888-4.2969-4.2109-4.3255-4.2109-12.26 0-7.8203 4.0964-12.432 4.0964-4.6406 10.714-4.6406 2.9792 0 5.2708 0.85938 2.2917 0.85937 4.0104 2.6927 1.7188 1.8333 2.6354 4.4974 0.91667 2.6354 0.91667 6.474v2.9219h-22.172q0 5.5859 2.8073 8.5365 2.8073 2.9505 7.763 2.9505 1.776 0 3.4662-0.40104 1.7188-0.40104 3.0938-1.0312 1.4609-0.65886 2.4635-1.2604 1.0026-0.63021 1.6615-1.1745h0.31511v5.8724q-0.94532 0.3724-2.349 0.94531-1.4036 0.54427-2.5208 0.85938-1.5755 0.42969-2.8646 0.65885-1.2604 0.22917-3.2083 0.22917zm6.3021-20.31q-0.0573-2.1771-0.51563-3.7526-0.45833-1.5755-1.3177-2.6641-0.94531-1.2031-2.4349-1.8333-1.4609-0.63021-3.638-0.63021-2.1484 0-3.6667 0.65885-1.4896 0.63021-2.7214 1.862-1.2031 1.2604-1.8333 2.8073-0.63021 1.5182-0.80209 3.5521zm29.643-6.6458h-0.28646q-0.60156-0.17188-1.2891-0.20053-0.65886-0.0573-1.6042-0.0573-2.1771 0-4.3255 0.94532-2.1484 0.94531-4.0677 2.8073v22.716h-5.3854v-31.997h5.3854v4.7552q2.9505-2.6068 5.1276-3.6667 2.2057-1.0886 4.2682-1.0886 0.83073 0 1.2318 0.0573 0.42969 0.0286 0.94531 0.11458zm19.789 26.956q-7.6484 0-11.888-4.2969-4.2109-4.3255-4.2109-12.26 0-7.8203 4.0964-12.432 4.0964-4.6406 10.714-4.6406 2.9792 0 5.2708 0.85938 2.2917 0.85937 4.0104 2.6927 1.7188 1.8333 2.6354 4.4974 0.91666 2.6354 0.91666 6.474v2.9219h-22.172q0 5.5859 2.8073 8.5365 2.8073 2.9505 7.763 2.9505 1.776 0 3.4661-0.40104 1.7188-0.40104 3.0938-1.0312 1.4609-0.65886 2.4636-1.2604 1.0026-0.63021 1.6615-1.1745h0.3151v5.8724q-0.94531 0.3724-2.349 0.94531-1.4036 0.54427-2.5208 0.85938-1.5755 0.42969-2.8646 0.65885-1.2604 0.22917-3.2083 0.22917zm6.3021-20.31q-0.0573-2.1771-0.51562-3.7526-0.45834-1.5755-1.3177-2.6641-0.94531-1.2031-2.4349-1.8333-1.4609-0.63021-3.638-0.63021-2.1484 0-3.6667 0.65885-1.4896 0.63021-2.7214 1.862-1.2031 1.2604-1.8333 2.8073-0.63021 1.5182-0.80208 3.5521zm29.643-6.6458h-0.28646q-0.60156-0.17188-1.2891-0.20053-0.65885-0.0573-1.6042-0.0573-2.1771 0-4.3255 0.94532-2.1484 0.94531-4.0677 2.8073v22.716h-5.3854v-31.997h5.3854v4.7552q2.9505-2.6068 5.1276-3.6667 2.2057-1.0886 4.2682-1.0886 0.83073 0 1.2318 0.0573 0.42969 0.0286 0.94532 0.11458z" style="fill:#f6f6f6;stroke-width:0" aria-label="Referer"/>
</svg>
